<svg xmlns="http://www.w3.org/2000/svg" xmlns:xlink="http://www.w3.org/1999/xlink" version="1.1" baseProfile="tiny" x="0px" y="0px" viewBox="0 0 100 100" xml:space="preserve"><path fill="#ffffff" d="M95,49l-0.9-3.7c-0.3-1.2-0.9-3.7-1.4-6c-0.6-2.6-1.2-4.7-1.7-6.4c-0.6-2.1-1.2-3.7-1.8-4.9  c-0.8-1.6-1.5-2.6-2.4-3.2c-1.3-0.9-2.9-0.7-4.2,0.5c-0.8,0.8-1.5,1.9-2.2,3.7c-0.6,1.5-1.2,3.4-1.8,5.8c-0.5,2.1-1.1,4.6-1.7,7.6  c-0.2,0.8-0.3,1.5-0.5,2.5H54.5c-0.4,0-0.8-1.3-1.3-1.9c-0.6-0.7-1.2-1.4-1.9-2l0,0c-0.6-0.6-1.3-1-1.8-1.5  c-0.5-0.4-1.1-0.8-1.6-1.2c-0.5-0.5-1-1-1.5-1.5c-0.5-0.6-1-1.3-1.5-2.1c-0.5-0.8-1.1-1.8-1.6-2.9c-0.5-1-1-2.2-1.7-3.7  c-0.5-1.1-0.9-2.3-1.4-3.4l-0.3-0.7c-0.5-1.3-1.1-2.8-1.7-4.1c-0.7-1.5-1.3-2.6-1.8-3.6c-0.7-1.2-1.4-2.1-2.2-2.7  c-1.5-1.2-2.9-1-3.6-0.8c-1,0.3-1.9,1.1-2.8,2.4c-0.6,1-1.3,2.4-1.9,4.1c-0.6,1.6-1.1,3.5-1.8,5.8c-0.5,2-1.1,4.4-1.7,7.2  c-0.6,2.6-1.1,5.3-1.7,8L20.7,41c-0.3,1.3-0.5,3-0.8,4H5l0.8,3.6c0.3,1.1,0.8,3.7,1.4,6.1C7.9,57.2,8.5,59.3,9,61  c0.6,2,1.2,3.5,1.9,4.6c0.9,1.5,1.8,2.4,2.9,2.7c0.2,0.1,0.5,0.1,0.8,0.1c0.8,0,1.9-0.3,3-1.7c0.7-0.9,1.3-2.2,2-4  c0.6-1.5,1.1-3.5,1.8-5.9c0.5-2,1.1-4.3,1.7-7.3c0-0.2,0.1-0.5,0.1-0.5h29c0.4,1,0.7,1.5,1.1,2.4c0.5,1.3,1.1,2.8,1.7,4.6  c0.5,1.6,1.1,3.4,1.7,5.6c0.5,1.9,1.1,3.9,1.6,5.8l0.1,0.3c0.6,2,1.1,4.2,1.7,6.2c0.7,2.3,1.2,4.1,1.7,5.6c0.6,1.8,1.2,3.3,1.8,4.4  c0.8,1.5,1.6,2.4,2.5,2.9c0.5,0.3,1.1,0.5,1.7,0.5c0.8,0,1.6-0.3,2.4-1c0.8-0.7,1.5-1.8,2.2-3.5c0.6-1.4,1.2-3.2,1.8-5.5  c0.5-2,1.1-4.4,1.7-7.4c0.5-2.3,1-5.1,1.7-8.7c0.3-1.8,0.7-3.6,1-5.4l0.7-3.8c0.2-1,0.4-2,0.6-3H95z M17.5,55.9  c-0.6,2.3-1.1,4-1.6,5.5c-0.5,1.4-1,2.2-1.2,2.7c-0.1-0.1-0.2-0.2-0.2-0.4c-0.5-0.9-1-2.2-1.5-3.9c-0.5-1.6-1.1-3.5-1.7-6  C10.7,52.1,10.3,51,10,49h9.1C18.5,52,18,54,17.5,55.9z M75.2,51.3l-0.7,3.7c-0.3,1.8-0.7,3.6-1,5.4c-0.7,3.5-1.2,6.3-1.7,8.6  c-0.6,2.9-1.1,5.2-1.7,7.2c-0.6,2.1-1.1,3.8-1.6,5c-0.4,0.9-0.7,1.4-0.9,1.7c-0.2-0.2-0.4-0.5-0.6-1c-0.5-0.9-1-2.2-1.6-3.8  c-0.5-1.4-1-3.1-1.7-5.4c-0.6-2-1.1-4.1-1.7-6.1L62,66.3c-0.5-2-1.1-4-1.6-5.9c-0.6-2.2-1.2-4.1-1.7-5.7c-0.6-1.8-1.2-3.4-1.7-4.8  c-0.1-0.3-0.3-0.9-0.4-0.9h0.2h19h0C75.5,50,75.4,50.5,75.2,51.3z"/></svg>